<?xml version="1.0" encoding="UTF-8"?>
<!DOCTYPE svg PUBLIC "-//W3C//DTD SVG 1.1//EN" "http://www.w3.org/Graphics/SVG/1.1/DTD/svg11.dtd">
<!-- Creator: CorelDRAW -->
<svg xmlns="http://www.w3.org/2000/svg" xml:space="preserve" width="500px" height="164px" version="1.1" shape-rendering="geometricPrecision" text-rendering="geometricPrecision" image-rendering="optimizeQuality" fill-rule="evenodd" clip-rule="evenodd"
viewBox="0 0 500 163.92"
 xmlns:xlink="http://www.w3.org/1999/xlink"
 xmlns:xodm="http://www.corel.com/coreldraw/odm/2003">
 <g id="Layer_x0020_1">
  <metadata id="CorelCorpID_0Corel-Layer"/>
  <g id="_2489792418928">
   <path fill="#2D84F2" fill-rule="nonzero" d="M79.976 4.001c-20.408,0 -39.025,7.656 -53.147,20.246 7.907,-2.959 16.466,-4.581 25.406,-4.581 40.041,0 72.5,32.46 72.5,72.5 0,34.588 -24.223,63.514 -56.629,70.752 3.873,0.577 7.836,0.879 11.87,0.879 44.127,0 79.898,-35.772 79.898,-79.898 0,-44.127 -35.771,-79.898 -79.898,-79.898z"/>
   <path fill="#114D9E" fill-rule="nonzero" d="M22.175 125.562c0,-11.635 9.432,-21.067 21.067,-21.067 11.635,0 21.067,9.432 21.067,21.067 0,1.814 -0.229,3.575 -0.661,5.254 3.698,-4.983 5.888,-11.152 5.888,-17.834 0,-16.547 -13.414,-29.96 -29.96,-29.96 -16.546,0 -29.959,13.413 -29.959,29.96 0,12.775 7.999,23.676 19.26,27.984 -4.122,-3.845 -6.702,-9.322 -6.702,-15.404z"/>
   <path fill="#6BB1F7" fill-rule="nonzero" d="M52.183 36.208c-25.565,0 -46.931,17.957 -52.183,41.945 8.823,-10.39 21.98,-16.985 36.679,-16.985 26.567,0 48.104,21.538 48.104,48.105 0,10.647 -3.461,20.484 -9.317,28.454 17.84,-8.653 30.141,-26.937 30.141,-48.096 0,-29.505 -23.919,-53.423 -53.424,-53.423z"/>
   <path fill="#1D1D1B" fill-rule="nonzero" d="M195.944 68.369l0 -67.41 13.86 0c9.987,0 17.233,0.798 21.739,2.421 6.456,2.314 11.515,6.278 15.178,11.918 3.663,5.666 5.481,12.397 5.481,20.218 0,6.756 -1.449,12.689 -4.322,17.823 -2.898,5.134 -6.666,8.912 -11.278,11.359 -4.611,2.447 -11.093,3.671 -19.42,3.671l-21.238 0zm6.403 -6.358l7.72 0c9.223,0 15.626,-0.585 19.21,-1.756 5.033,-1.649 8.985,-4.628 11.858,-8.911 2.872,-4.283 4.295,-9.551 4.295,-15.749 0,-6.517 -1.555,-12.077 -4.664,-16.679 -3.136,-4.602 -7.484,-7.768 -13.043,-9.471 -4.19,-1.303 -11.068,-1.942 -20.659,-1.942l-4.717 0 0 54.508zm85.112 -44.771c7.588,0 13.886,2.766 18.866,8.326 4.559,5.081 6.825,11.066 6.825,18.01 0,6.97 -2.398,13.062 -7.193,18.249 -4.796,5.214 -10.962,7.821 -18.498,7.821 -7.563,0 -13.755,-2.607 -18.551,-7.821 -4.796,-5.187 -7.194,-11.279 -7.194,-18.249 0,-6.89 2.266,-12.876 6.825,-17.956 4.98,-5.587 11.304,-8.38 18.92,-8.38zm0 6.278c-5.271,0 -9.803,1.968 -13.571,5.905 -3.794,3.938 -5.692,8.699 -5.692,14.286 0,3.618 0.87,6.97 2.609,10.082 1.713,3.113 4.058,5.533 6.983,7.209 2.925,1.703 6.166,2.554 9.671,2.554 3.504,0 6.745,-0.851 9.67,-2.554 2.925,-1.676 5.27,-4.096 6.983,-7.209 1.713,-3.112 2.582,-6.464 2.582,-10.082 0,-5.587 -1.897,-10.348 -5.691,-14.286 -3.795,-3.937 -8.301,-5.905 -13.544,-5.905zm85.427 5.347l-5.033 3.165c-4.374,-5.825 -10.329,-8.752 -17.839,-8.752 -6.034,0 -11.014,1.942 -14.993,5.853 -3.979,3.91 -5.982,8.672 -5.982,14.259 0,3.644 0.923,7.049 2.741,10.268 1.818,3.219 4.348,5.693 7.536,7.475 3.188,1.783 6.772,2.66 10.725,2.66 7.272,0 13.201,-2.926 17.812,-8.752l5.033 3.326c-2.372,3.591 -5.533,6.358 -9.512,8.326 -3.979,1.969 -8.511,2.953 -13.597,2.953 -7.8,0 -14.282,-2.501 -19.42,-7.528 -5.139,-5.002 -7.721,-11.094 -7.721,-18.276 0,-4.815 1.212,-9.311 3.61,-13.461 2.398,-4.123 5.718,-7.369 9.934,-9.683 4.19,-2.314 8.907,-3.458 14.098,-3.458 3.267,0 6.429,0.505 9.459,1.489 3.031,1.011 5.613,2.315 7.748,3.938 2.107,1.622 3.899,3.697 5.401,6.198zm17.734 -28.864l6.403 0 0 18.516 10.066 0 0 5.506 -10.066 0 0 44.346 -6.403 0 0 -44.346 -8.669 0 0 -5.506 8.669 0 0 -18.516zm49.328 17.239c7.589,0 13.886,2.766 18.867,8.326 4.558,5.081 6.825,11.066 6.825,18.01 0,6.97 -2.399,13.062 -7.194,18.249 -4.796,5.214 -10.962,7.821 -18.498,7.821 -7.563,0 -13.755,-2.607 -18.551,-7.821 -4.796,-5.187 -7.194,-11.279 -7.194,-18.249 0,-6.89 2.267,-12.876 6.825,-17.956 4.981,-5.587 11.304,-8.38 18.92,-8.38zm0 6.278c-5.27,0 -9.802,1.968 -13.571,5.905 -3.794,3.938 -5.691,8.699 -5.691,14.286 0,3.618 0.869,6.97 2.608,10.082 1.713,3.113 4.059,5.533 6.983,7.209 2.925,1.703 6.166,2.554 9.671,2.554 3.504,0 6.746,-0.851 9.67,-2.554 2.925,-1.676 5.27,-4.096 6.983,-7.209 1.713,-3.112 2.583,-6.464 2.583,-10.082 0,-5.587 -1.898,-10.348 -5.692,-14.286 -3.795,-3.937 -8.3,-5.905 -13.544,-5.905zm35.072 -5.001l6.509 0 0 7.288c1.923,-2.873 3.979,-5.027 6.139,-6.437 2.135,-1.41 4.375,-2.128 6.693,-2.128 1.766,0 3.637,0.558 5.639,1.676l-3.32 5.427c-1.344,-0.586 -2.45,-0.878 -3.347,-0.878 -2.134,0 -4.163,0.878 -6.139,2.633 -1.976,1.756 -3.452,4.469 -4.48,8.167 -0.79,2.846 -1.185,8.593 -1.185,17.238l0 16.866 -6.509 0 0 -49.852z"/>
   <path fill="#1D1D1B" fill-rule="nonzero" d="M189.066 149.659l5.666 -3.431c3.979,7.422 8.59,11.12 13.834,11.12 2.239,0 4.347,-0.532 6.324,-1.57 1.976,-1.037 3.478,-2.447 4.505,-4.23 1.028,-1.782 1.529,-3.644 1.529,-5.639 0,-2.262 -0.764,-4.496 -2.266,-6.651 -2.082,-3.006 -5.903,-6.597 -11.436,-10.827 -5.56,-4.23 -9.038,-7.316 -10.408,-9.205 -2.346,-3.165 -3.532,-6.597 -3.532,-10.294 0,-2.953 0.686,-5.613 2.082,-8.034 1.397,-2.421 3.347,-4.31 5.876,-5.72 2.53,-1.383 5.27,-2.075 8.248,-2.075 3.135,0 6.087,0.798 8.827,2.368 2.741,1.569 5.639,4.469 8.696,8.699l-5.454 4.15c-2.504,-3.352 -4.665,-5.56 -6.43,-6.651 -1.766,-1.064 -3.716,-1.596 -5.797,-1.596 -2.688,0 -4.875,0.825 -6.588,2.474 -1.713,1.649 -2.556,3.671 -2.556,6.092 0,1.463 0.29,2.9 0.896,4.256 0.606,1.384 1.713,2.873 3.32,4.496 0.87,0.878 3.742,3.112 8.617,6.757 5.771,4.283 9.75,8.114 11.91,11.465 2.134,3.379 3.215,6.757 3.215,10.162 0,4.869 -1.845,9.125 -5.507,12.716 -3.689,3.618 -8.169,5.427 -13.439,5.427 -4.058,0 -7.721,-1.09 -11.014,-3.298 -3.294,-2.182 -6.351,-5.826 -9.118,-10.961zm100.079 -26.947l-5.033 3.165c-4.374,-5.826 -10.329,-8.752 -17.839,-8.752 -6.034,0 -11.014,1.942 -14.993,5.852 -3.979,3.911 -5.982,8.673 -5.982,14.259 0,3.645 0.922,7.05 2.74,10.269 1.819,3.219 4.348,5.693 7.537,7.475 3.188,1.783 6.772,2.66 10.724,2.66 7.273,0 13.202,-2.926 17.813,-8.752l5.033 3.325c-2.372,3.592 -5.533,6.358 -9.513,8.327 -3.978,1.968 -8.511,2.953 -13.596,2.953 -7.8,0 -14.282,-2.501 -19.42,-7.529 -5.139,-5.001 -7.721,-11.093 -7.721,-18.275 0,-4.815 1.212,-9.311 3.61,-13.461 2.398,-4.124 5.718,-7.369 9.934,-9.683 4.19,-2.315 8.906,-3.459 14.097,-3.459 3.268,0 6.43,0.506 9.46,1.49 3.03,1.011 5.613,2.315 7.747,3.937 2.108,1.623 3.9,3.698 5.402,6.199zm12.2 -29.609l6.351 0 0 28.199c2.556,-3.432 5.401,-5.986 8.485,-7.688 3.082,-1.676 6.429,-2.528 10.039,-2.528 3.689,0 6.956,0.931 9.829,2.82 2.846,1.889 4.953,4.443 6.324,7.635 1.344,3.192 2.029,8.193 2.029,15.004l0 25.671 -6.351 0 0 -23.783c0,-5.746 -0.237,-9.576 -0.685,-11.492 -0.764,-3.299 -2.187,-5.772 -4.269,-7.448 -2.081,-1.676 -4.796,-2.501 -8.168,-2.501 -3.821,0 -7.273,1.277 -10.303,3.831 -3.057,2.58 -5.06,5.746 -6.034,9.55 -0.606,2.447 -0.896,6.97 -0.896,13.567l0 18.276 -6.351 0 0 -69.113zm80.053 17.983c7.588,0 13.886,2.767 18.866,8.327 4.559,5.081 6.825,11.066 6.825,18.01 0,6.969 -2.398,13.061 -7.194,18.249 -4.795,5.214 -10.962,7.821 -18.497,7.821 -7.563,0 -13.755,-2.607 -18.551,-7.821 -4.796,-5.188 -7.194,-11.28 -7.194,-18.249 0,-6.891 2.266,-12.876 6.825,-17.957 4.98,-5.587 11.304,-8.38 18.92,-8.38zm0 6.279c-5.271,0 -9.803,1.968 -13.571,5.905 -3.794,3.937 -5.692,8.699 -5.692,14.286 0,3.617 0.87,6.969 2.609,10.082 1.713,3.112 4.058,5.533 6.983,7.209 2.925,1.702 6.166,2.554 9.671,2.554 3.504,0 6.745,-0.852 9.67,-2.554 2.925,-1.676 5.27,-4.097 6.983,-7.209 1.712,-3.113 2.582,-6.465 2.582,-10.082 0,-5.587 -1.897,-10.349 -5.692,-14.286 -3.794,-3.937 -8.3,-5.905 -13.543,-5.905zm60.869 -6.279c7.589,0 13.886,2.767 18.867,8.327 4.558,5.081 6.824,11.066 6.824,18.01 0,6.969 -2.398,13.061 -7.193,18.249 -4.796,5.214 -10.962,7.821 -18.498,7.821 -7.563,0 -13.755,-2.607 -18.551,-7.821 -4.796,-5.188 -7.194,-11.28 -7.194,-18.249 0,-6.891 2.266,-12.876 6.825,-17.957 4.981,-5.587 11.304,-8.38 18.92,-8.38zm0 6.279c-5.27,0 -9.803,1.968 -13.571,5.905 -3.794,3.937 -5.691,8.699 -5.691,14.286 0,3.617 0.869,6.969 2.608,10.082 1.713,3.112 4.058,5.533 6.983,7.209 2.925,1.702 6.166,2.554 9.671,2.554 3.505,0 6.745,-0.852 9.67,-2.554 2.925,-1.676 5.27,-4.097 6.983,-7.209 1.713,-3.113 2.582,-6.465 2.582,-10.082 0,-5.587 -1.897,-10.349 -5.691,-14.286 -3.795,-3.937 -8.301,-5.905 -13.544,-5.905zm36.548 -24.262l6.35 0 0 69.113 -6.35 0 0 -69.113z"/>
  </g>
 </g>
</svg>
